<svg width="906" height="288" viewBox="0 0 906 288" fill="none" xmlns="http://www.w3.org/2000/svg">
<path d="M669.553 189.943C669.553 189.943 734.835 187.965 720.414 259.181H863.42L890.126 254.235C903.974 251.268 902.985 240.388 902.985 240.388L901.996 228.518L888.148 16.8479C888.148 16.8479 886.17 4.97847 874.3 3.00024H439.881H21.6833C21.6833 3.00024 9.8139 3.00024 9.8139 16.8479L7.83567 210.714L3.87921 214.671C3.87921 214.671 1.90098 241.614 3.87921 244.958L25.6397 248.301L79.052 258.192H94.8778C92.2401 246.982 90.0479 224.562 105.758 206.758C106.899 205.464 119.605 189.943 143.344 189.943C143.344 189.943 204.669 188.954 195.768 258.192H462.888H566.013H621.087C617.79 250.279 618.119 229.508 624.054 216.649C624.054 216.649 634.934 189.943 669.553 189.943Z" fill="white" stroke="#3B3B3B" stroke-width="4.6894" stroke-miterlimit="10"/>
<path d="M900.834 231.486L897.944 198.845H760.551L631.966 174.117H622.075H10.3432L10.3418 205.769H103.637C114.188 191.748 134.571 187.432 143.143 187.761C169.288 188.766 181.085 200.494 185.701 205.769H378.753H628.849C646.434 185.886 669.398 187.761 669.398 187.761C706.224 188.398 720.989 211.862 722.637 223.402L760.551 231.486H900.834Z" fill="#DD4F1B"/>
<path d="M10.5547 169.171H631.968L763.52 193.899H897.318" stroke="#DD4F1B" stroke-width="4.6894"/>
<path d="M778.91 21.4314L792.599 5.34497H872.615C877.248 5.34497 886.331 7.50171 887.125 21.4314L889.111 47.5495H778.91V21.4314Z" fill="#DD4F1B"/>
<path d="M620.1 21.7935L633.54 5.34497H674.573L661.642 21.7935H620.1Z" fill="#1F35C1"/>
<path d="M672.521 21.7935L685.124 5.34497H727.329L714.064 21.7935H672.521Z" fill="#CA1E1D"/>
<path d="M725.932 21.7935L739.052 5.34497H781.256L767.474 21.7935H725.932Z" fill="#1F35C1"/>
<rect x="18.7148" y="19.8154" width="856.574" height="138.476" rx="7.03409" fill="#3B3B3B"/>
<path d="M375.907 255.224H278.734C276.082 255.224 273.908 252.969 273.908 250.22V68.3403C273.908 65.5909 276.082 63.3359 278.734 63.3359H375.907C378.558 63.3359 380.733 65.5909 380.733 68.3403V250.22C380.733 252.969 378.558 255.224 375.907 255.224Z" fill="#2B2B2B"/>
<path d="M858.597 255.224H761.423C758.772 255.224 756.598 252.969 756.598 250.22V68.3403C756.598 65.5909 758.772 63.3359 761.423 63.3359H858.597C861.248 63.3359 863.422 65.5909 863.422 68.3403V250.22C863.422 252.969 861.248 255.224 858.597 255.224Z" fill="#2B2B2B"/>
<path d="M325.381 249.289H281.78C280.712 249.289 279.842 248.419 279.842 247.35V69.2302C279.842 68.1621 280.712 67.2917 281.78 67.2917H325.381C326.449 67.2917 327.319 68.1621 327.319 69.2302V247.35C327.319 248.419 326.449 249.289 325.381 249.289Z" fill="white" stroke="#3B3B3B" stroke-width="2.3447" stroke-miterlimit="10"/>
<path d="M372.86 249.289H329.258C328.19 249.289 327.32 248.419 327.32 247.35V69.2302C327.32 68.1621 328.19 67.2917 329.258 67.2917H372.86C373.928 67.2917 374.798 68.1621 374.798 69.2302V247.35C374.798 248.419 373.928 249.289 372.86 249.289Z" fill="white" stroke="#3B3B3B" stroke-width="2.3447" stroke-miterlimit="10"/>
<path d="M368.862 75.2063H333.254V209.726H368.862V75.2063Z" fill="#EDF6FF"/>
<path d="M321.387 75.2063H285.779V209.726H321.387V75.2063Z" fill="#EDF6FF"/>
<path d="M808.071 249.289H764.469C763.401 249.289 762.531 248.419 762.531 247.35V69.2302C762.531 68.1621 763.401 67.2917 764.469 67.2917H808.071C809.139 67.2917 810.009 68.1621 810.009 69.2302V247.35C810.009 248.419 809.139 249.289 808.071 249.289Z" fill="white" stroke="#3B3B3B" stroke-width="2.3447" stroke-miterlimit="10"/>
<path d="M855.547 249.289H811.946C810.878 249.289 810.008 248.419 810.008 247.35V69.2302C810.008 68.1621 810.878 67.2917 811.946 67.2917H855.547C856.615 67.2917 857.485 68.1621 857.485 69.2302V247.35C857.485 248.419 856.615 249.289 855.547 249.289Z" fill="white" stroke="#3B3B3B" stroke-width="2.3447" stroke-miterlimit="10"/>
<path d="M804.073 75.2063H768.465V209.726H804.073V75.2063Z" fill="#EDF6FF"/>
<path d="M851.551 75.2063H815.943V209.726H851.551V75.2063Z" fill="#EDF6FF"/>
<path d="M391.795 58.5744H502.21V149.207H391.795V58.5744Z" fill="#EDF6FF" stroke="white" stroke-width="2.3447"/>
<path d="M510.489 58.5744H620.903V149.207H510.489V58.5744Z" fill="#EDF6FF" stroke="white" stroke-width="2.3447"/>
<path d="M264.017 150.379V57.4021H151.258V124.603L264.017 150.379Z" fill="#EDF6FF" stroke="white" stroke-width="2.3447"/>
<path d="M629.18 58.5744H739.595V149.207H629.18V58.5744Z" fill="#EDF6FF" stroke="white" stroke-width="2.3447"/>
<path d="M33.7388 58.5744H144.153V123.49H33.7388V58.5744Z" fill="#EDF6FF" stroke="white" stroke-width="2.3447"/>
<path d="M152.43 30.8784H262.845V50.2942H152.43V30.8784Z" fill="#EDF6FF" stroke="white" stroke-width="2.3447"/>
<path d="M391.795 30.8784H502.21V50.2942H391.795V30.8784Z" fill="#EDF6FF" stroke="white" stroke-width="2.3447"/>
<path d="M510.489 30.8784H620.903V50.2942H510.489V30.8784Z" fill="#EDF6FF" stroke="white" stroke-width="2.3447"/>
<path d="M629.18 30.8784H739.595V50.2942H629.18V30.8784Z" fill="#EDF6FF" stroke="white" stroke-width="2.3447"/>
<path d="M33.7388 30.8784H144.153V50.2942H33.7388V30.8784Z" fill="#EDF6FF" stroke="white" stroke-width="2.3447"/>
<path d="M888.15 19.8154L899.026 183.578C899.136 185.505 896.99 185.987 895.903 185.987H885.494C881.33 185.987 879.595 182.776 879.248 181.17V25.8361C879.248 21.9829 882.024 20.2168 883.412 19.8154H888.15Z" fill="#3B3B3B"/>
<path d="M888.147 23.7722L898.038 172.139C898.104 173.906 898.69 176.096 898.038 176.096H888.927C886.429 176.096 885.388 173.152 885.18 171.681V29.2912C885.18 25.759 885.336 24.1401 886.169 23.7722H888.147Z" fill="#EDF6FF" stroke="white" stroke-width="2.3447"/>
<rect x="736.812" y="227.529" width="11.8694" height="5.93469" fill="#CA1E1D"/>
<rect x="497.447" y="227.529" width="11.8694" height="5.93469" fill="#CA1E1D"/>
<rect x="252.148" y="227.529" width="11.8694" height="5.93469" fill="#CA1E1D"/>
<rect x="64.2148" y="227.529" width="11.8694" height="5.93469" fill="#CA1E1D"/>
<rect x="99.8242" y="197.856" width="90.0095" height="90.0095" rx="45.0047" fill="#3B3B3B"/>
<rect x="116.238" y="214.269" width="56.2728" height="56.2728" rx="28.1364" fill="#D9D9D9"/>
<rect x="142.029" y="228.337" width="4.6894" height="4.6894" rx="2.3447" fill="#3B3B3B"/>
<rect x="158.443" y="240.06" width="4.6894" height="4.6894" rx="2.3447" transform="rotate(90 158.443 240.06)" fill="#3B3B3B"/>
<rect width="4.6894" height="4.69099" rx="2.3447" transform="matrix(-0.69986 0.71428 -0.732547 -0.680717 155.781 250.287)" fill="#3B3B3B"/>
<rect width="4.6894" height="4.69099" rx="2.3447" transform="matrix(-0.69986 0.71428 -0.732547 -0.680717 139.367 250.287)" fill="#3B3B3B"/>
<rect x="142.029" y="251.784" width="4.6894" height="4.6894" rx="2.3447" fill="#3B3B3B"/>
<rect x="134.994" y="240.06" width="4.6894" height="4.6894" rx="2.3447" transform="rotate(90 134.994 240.06)" fill="#3B3B3B"/>
<rect width="4.6894" height="4.69099" rx="2.3447" transform="matrix(-0.69986 0.71428 -0.732547 -0.680717 139.367 233.875)" fill="#3B3B3B"/>
<rect width="4.6894" height="4.69099" rx="2.3447" transform="matrix(-0.69986 0.71428 -0.732547 -0.680717 155.781 233.875)" fill="#3B3B3B"/>
<rect x="116.238" y="214.269" width="56.2728" height="56.2728" rx="28.1364" fill="#D9D9D9"/>
<rect x="142.029" y="228.337" width="4.6894" height="4.6894" rx="2.3447" fill="#3B3B3B"/>
<rect x="158.443" y="240.06" width="4.6894" height="4.6894" rx="2.3447" transform="rotate(90 158.443 240.06)" fill="#3B3B3B"/>
<rect width="4.6894" height="4.69099" rx="2.3447" transform="matrix(-0.69986 0.71428 -0.732547 -0.680717 155.781 250.287)" fill="#3B3B3B"/>
<rect width="4.6894" height="4.69099" rx="2.3447" transform="matrix(-0.69986 0.71428 -0.732547 -0.680717 139.367 250.287)" fill="#3B3B3B"/>
<rect x="142.029" y="251.784" width="4.6894" height="4.6894" rx="2.3447" fill="#3B3B3B"/>
<rect x="134.994" y="240.06" width="4.6894" height="4.6894" rx="2.3447" transform="rotate(90 134.994 240.06)" fill="#3B3B3B"/>
<rect width="4.6894" height="4.69099" rx="2.3447" transform="matrix(-0.69986 0.71428 -0.732547 -0.680717 139.367 233.875)" fill="#3B3B3B"/>
<rect width="4.6894" height="4.69099" rx="2.3447" transform="matrix(-0.69986 0.71428 -0.732547 -0.680717 155.781 233.875)" fill="#3B3B3B"/>
<circle cx="144.372" cy="242.405" r="7.03409" fill="#3B3B3B"/>
<rect x="626.035" y="197.856" width="90.0095" height="90.0095" rx="45.0047" fill="#3B3B3B"/>
<rect x="642.447" y="214.269" width="56.2728" height="56.2728" rx="28.1364" fill="#D9D9D9"/>
<rect x="668.24" y="228.337" width="4.6894" height="4.6894" rx="2.3447" fill="#3B3B3B"/>
<rect x="684.652" y="240.06" width="4.6894" height="4.6894" rx="2.3447" transform="rotate(90 684.652 240.06)" fill="#3B3B3B"/>
<rect width="4.6894" height="4.69099" rx="2.3447" transform="matrix(-0.69986 0.71428 -0.732547 -0.680717 681.99 250.287)" fill="#3B3B3B"/>
<rect width="4.6894" height="4.69099" rx="2.3447" transform="matrix(-0.69986 0.71428 -0.732547 -0.680717 665.578 250.287)" fill="#3B3B3B"/>
<rect x="668.24" y="251.784" width="4.6894" height="4.6894" rx="2.3447" fill="#3B3B3B"/>
<rect x="661.205" y="240.06" width="4.6894" height="4.6894" rx="2.3447" transform="rotate(90 661.205 240.06)" fill="#3B3B3B"/>
<rect width="4.6894" height="4.69099" rx="2.3447" transform="matrix(-0.69986 0.71428 -0.732547 -0.680717 665.578 233.875)" fill="#3B3B3B"/>
<rect width="4.6894" height="4.69099" rx="2.3447" transform="matrix(-0.69986 0.71428 -0.732547 -0.680717 681.99 233.875)" fill="#3B3B3B"/>
<rect x="642.447" y="214.269" width="56.2728" height="56.2728" rx="28.1364" fill="#D9D9D9"/>
<rect x="668.24" y="228.337" width="4.6894" height="4.6894" rx="2.3447" fill="#3B3B3B"/>
<rect x="684.652" y="240.06" width="4.6894" height="4.6894" rx="2.3447" transform="rotate(90 684.652 240.06)" fill="#3B3B3B"/>
<rect width="4.6894" height="4.69099" rx="2.3447" transform="matrix(-0.69986 0.71428 -0.732547 -0.680717 681.99 250.287)" fill="#3B3B3B"/>
<rect width="4.6894" height="4.69099" rx="2.3447" transform="matrix(-0.69986 0.71428 -0.732547 -0.680717 665.578 250.287)" fill="#3B3B3B"/>
<rect x="668.24" y="251.784" width="4.6894" height="4.6894" rx="2.3447" fill="#3B3B3B"/>
<rect x="661.205" y="240.06" width="4.6894" height="4.6894" rx="2.3447" transform="rotate(90 661.205 240.06)" fill="#3B3B3B"/>
<rect width="4.6894" height="4.69099" rx="2.3447" transform="matrix(-0.69986 0.71428 -0.732547 -0.680717 665.578 233.875)" fill="#3B3B3B"/>
<rect width="4.6894" height="4.69099" rx="2.3447" transform="matrix(-0.69986 0.71428 -0.732547 -0.680717 681.99 233.875)" fill="#3B3B3B"/>
<circle cx="670.583" cy="242.405" r="7.03409" fill="#3B3B3B"/>
<path d="M390.865 119.063L456.517 59.2732H481.136L390.865 146.027V119.063Z" fill="white"/>
<path d="M150.535 116.718L216.187 56.9285H240.806L165.776 127.269L150.535 124.925V116.718Z" fill="white"/>
<path d="M33.2988 116.718L97.778 58.1008H122.397L49.7117 122.58H33.2988V116.718Z" fill="white"/>
<path d="M511.617 119.063L577.269 59.2732H601.888L511.617 146.027V119.063Z" fill="white"/>
<path d="M628.852 119.063L694.503 59.2732H719.122L628.852 146.027V119.063Z" fill="white"/>
<path d="M764.844 119.063L807.048 78.031V106.167L764.844 146.027V119.063Z" fill="white"/>
<path d="M281.836 119.063L324.041 78.031V106.167L281.836 146.027V119.063Z" fill="white"/>
<path d="M811.74 76.8588L817.602 70.9971H845.738L811.74 102.65V76.8588Z" fill="white"/>
<path d="M328.73 76.8588L334.592 70.9971H362.729L328.73 102.65V76.8588Z" fill="white"/>
<path d="M390.865 72.169L404.933 59.2732H427.208L390.865 93.2713V72.169Z" fill="white"/>
<path d="M150.535 69.8243L164.603 56.9285H186.878L150.535 90.9266V69.8243Z" fill="white"/>
<path d="M33.2988 69.8243L46.1947 59.2732H67.297L33.2988 90.9266V69.8243Z" fill="white"/>
<path d="M511.617 72.169L525.685 59.2732H547.96L511.617 93.2713V72.169Z" fill="white"/>
<path d="M628.852 72.169L642.92 59.2732H665.194L628.852 93.2713V72.169Z" fill="white"/>
<path d="M767.189 177.68L805.877 142.51V169.474L767.189 204.645V177.68Z" fill="white"/>
<path d="M284.182 177.68L322.869 142.51V169.474L284.182 204.645V177.68Z" fill="white"/>
<path d="M814.084 135.476L852.772 97.9609V124.925L814.084 162.44V135.476Z" fill="white"/>
<path d="M331.074 135.476L369.762 97.9609V124.925L331.074 162.44V135.476Z" fill="white"/>
<path d="M884.424 75.6862L891.458 68.6521L892.63 93.2714L884.424 101.478V75.6862Z" fill="white"/>
<path d="M884.424 106.167L892.63 97.9609V101.478L884.424 109.684V106.167Z" fill="white"/>
<path d="M396.727 149.544L489.342 59.2732H494.032L402.588 149.544H396.727Z" fill="white"/>
<path d="M173.979 129.614L249.009 56.9285H253.698L177.496 130.786L173.979 129.614Z" fill="white"/>
<path d="M61.4355 123.752L131.776 58.1008H135.294L66.1249 123.752H61.4355Z" fill="white"/>
<path d="M517.48 149.544L610.096 59.2732H614.785L523.342 149.544H517.48Z" fill="white"/>
<path d="M634.713 149.544L727.328 59.2732H732.018L640.575 149.544H634.713Z" fill="white"/>
<path d="M764.844 107.34L801.187 72.1692H805.876L764.844 112.029V107.34Z" fill="white"/>
<path d="M281.836 107.34L318.179 72.1692H322.868L281.836 112.029V107.34Z" fill="white"/>
<path d="M767.189 211.679L805.877 174.163V178.853L767.189 216.368V211.679Z" fill="white"/>
<path d="M284.182 211.679L322.869 174.163V178.853L284.182 216.368V211.679Z" fill="white"/>
<path d="M814.084 167.13L852.772 129.615V134.304L814.084 171.819V167.13Z" fill="white"/>
<path d="M331.074 167.13L369.762 129.615V134.304L331.074 171.819V167.13Z" fill="white"/>
<path d="M464.723 49.8945L483.48 31.137H502.238V34.654L485.825 49.8945H464.723Z" fill="white"/>
<path d="M224.393 49.8945L243.15 31.137H261.908V34.654L245.495 49.8945H224.393Z" fill="white"/>
<path d="M107.156 49.8945L125.914 31.137H144.671V34.654L128.259 49.8945H107.156Z" fill="white"/>
<path d="M585.475 49.8945L607.749 31.137H620.645V36.9987L607.749 49.8945H585.475Z" fill="white"/>
<path d="M702.711 49.8945L724.986 31.137H739.054V35.8264L724.986 49.8945H702.711Z" fill="white"/>
<path d="M410.795 49.8945L429.553 31.137H448.31H452.999L433.07 49.8945H410.795Z" fill="white"/>
<path d="M170.463 49.8945L189.22 31.137H207.978H212.667L192.738 49.8945H170.463Z" fill="white"/>
<path d="M53.2285 49.8945L71.9861 31.137H90.7437H95.4331L75.5031 49.8945H53.2285Z" fill="white"/>
<path d="M532.719 49.8945L551.476 31.137H572.579H573.751L554.993 49.8945H532.719Z" fill="white"/>
<path d="M649.955 49.8945L668.713 31.137H689.815H690.987L672.23 49.8945H649.955Z" fill="white"/>
</svg>
